<svg width="110" height="42" viewBox="0 0 110 42" fill="none" xmlns="http://www.w3.org/2000/svg">
<path d="M97.0701 3.22081C97.009 3.27505 96.9642 3.34545 96.9409 3.42402C96.9175 3.50258 96.9166 3.58615 96.9381 3.66521C96.9597 3.74427 97.0029 3.81564 97.0628 3.87121C97.1226 3.92678 97.1968 3.9643 97.2769 3.97952C97.7703 4.06684 98.344 4.27326 98.6747 4.74292C98.9441 5.12038 99.0817 5.57702 99.0659 6.04156C99.0627 6.1257 99.0837 6.20897 99.1266 6.28129C99.1694 6.35361 99.2321 6.41188 99.3072 6.44905C99.3823 6.48622 99.4664 6.5007 99.5495 6.49073C99.6326 6.48076 99.7111 6.44676 99.7754 6.39287C100.885 5.48726 102.654 3.73005 103.399 1.14777C103.419 1.07737 103.421 1.00297 103.405 0.931454C103.389 0.859942 103.356 0.793635 103.308 0.738674C103.26 0.683713 103.198 0.641874 103.13 0.617034C103.061 0.592193 102.988 0.585154 102.916 0.596568C101.732 0.76745 99.1514 1.34513 97.0701 3.22081Z" fill="url(#paint0_linear_301_7880)"/>
<path d="M88.8109 18.9092C93.0633 18.9092 96.5105 15.462 96.5105 11.2096C96.5105 10.5782 96.4345 9.96445 96.2912 9.37714C92.69 12.2659 89.2155 14.2728 86.3383 15.5679C85.2906 16.0395 84.3133 16.4207 83.4297 16.7166C84.8178 18.0732 86.7167 18.9092 88.8109 18.9092Z" fill="white"/>
<path d="M81.3425 13.0898C81.1915 12.4881 81.1113 11.8582 81.1113 11.2096C81.1113 6.95724 84.5586 3.51001 88.8109 3.51001C90.9379 3.51001 92.8634 4.37244 94.2569 5.76668C90.7447 8.66482 87.3682 10.6251 84.6618 11.8433C83.3661 12.4265 82.2406 12.8322 81.3425 13.0898Z" fill="white"/>
<path fill-rule="evenodd" clip-rule="evenodd" d="M96.2108 8.30427C96.666 7.97142 96.7653 7.33253 96.4324 6.87727C96.0996 6.42201 95.4607 6.32278 95.0054 6.65562C93.0422 8.09096 89.8513 10.2795 88.7187 10.9069C85.9746 12.427 83.7616 13.4554 82.1797 13.9454C81.3799 14.1931 80.8209 14.2775 80.4703 14.2614C80.4595 14.2609 80.4491 14.2603 80.4392 14.2597C80.4395 14.2591 80.4398 14.2585 80.4402 14.2579L80.4384 14.259C80.3293 13.872 80.0678 12.8421 80.0366 11.6256C79.6467 11.9739 79.301 12.3434 79.0246 12.7082C78.7691 13.0454 78.542 13.419 78.4094 13.8015C78.2854 14.159 78.1831 14.7076 78.4629 15.234C78.8787 16.0162 79.6725 16.2693 80.3768 16.3015C81.0759 16.3336 81.8996 16.1702 82.7839 15.8963C84.57 15.3431 86.9297 14.2326 89.7083 12.6934C90.9679 11.9957 94.2546 9.73445 96.2108 8.30427ZM80.2109 14.2138C80.2117 14.2133 80.2174 14.2158 80.2258 14.2227C80.2143 14.2178 80.2101 14.2143 80.2109 14.2138ZM80.3255 14.5151C80.3247 14.5224 80.3235 14.5265 80.3235 14.5265C80.3235 14.5265 80.3236 14.523 80.3255 14.5151Z" fill="url(#paint1_linear_301_7880)"/>
<path d="M0 35.4439H4.34298V14.5603H0V35.4439Z" fill="white"/>
<path d="M7.33982 35.4447H11.6828V21.6633H7.33982V35.4447Z" fill="white"/>
<path d="M22.9773 35.8342C26.2902 35.8342 29.7701 33.0739 29.7701 28.5569C29.7701 24.0399 26.7356 21.2796 23.1443 21.2796C21.5296 21.2796 20.0263 21.7815 19.024 22.6179V14.5591H14.6811V35.4439H19.024V34.468C19.8592 35.2766 21.0563 35.8342 22.9773 35.8342ZM22.0864 31.7076C20.1933 31.7076 18.9127 30.2856 18.9127 28.5569C18.9127 26.8282 20.1933 25.4062 22.0864 25.4062C23.9795 25.4062 25.2601 26.8282 25.2601 28.5569C25.2601 30.2856 23.9795 31.7076 22.0864 31.7076Z" fill="white"/>
<path d="M32.0536 35.4439H36.3966V28.5848C36.3966 26.2148 37.6494 25.2389 39.1527 25.2389C40.155 25.2389 41.5469 25.7085 42.0202 26.3219V21.9209C41.3521 21.5026 40.7674 21.2796 39.7652 21.2796C38.5959 21.2796 37.2875 21.7815 36.3966 22.7574V21.6631H32.0536V35.4439Z" fill="white"/>
<path d="M44.3156 35.4447H48.6585V21.6654H44.3156V35.4447Z" fill="white"/>
<path d="M55.9429 35.8342C58.699 35.8342 61.3437 34.3843 61.3437 31.0942C61.3437 28.5848 59.5342 27.6925 57.9473 27.1628C56.0821 26.5494 55.4139 26.159 55.4139 25.6014C55.4139 25.1831 55.8593 24.8485 56.6945 24.8485C58.0865 24.8485 59.2001 25.4352 60.2302 26.0765V22.1439C59.4228 21.7257 58.3927 21.2796 56.5553 21.2796C53.7992 21.2796 51.3493 22.9247 51.3493 25.7129C51.3493 27.4695 52.4351 28.8636 54.5509 29.6164C56.4161 30.2856 57.1678 30.5366 57.1678 31.1779C57.1678 31.7355 56.6389 31.9864 55.8037 31.9864C54.3838 31.9864 53.1032 31.3451 52.1567 30.5366H51.934L50.9874 34.4959C52.1567 35.3323 53.7992 35.8342 55.9429 35.8342Z" fill="white"/>
<path d="M69.2376 35.8342C70.8244 35.8342 71.4648 35.6669 72.634 35.1372L73.0516 31.373H72.634C71.7431 32.0422 71.0472 32.1816 70.4068 32.1816C69.6552 32.1816 68.9592 31.7076 68.9592 30.4808V25.0158H72.5505V21.6699H68.9592V16.8812L64.6162 19.1988V21.6699H62.5004V25.0158H64.6162V30.9548C64.6162 34.468 67.1218 35.8342 69.2376 35.8342Z" fill="white"/>
<path d="M75.2812 35.4439H79.6242V28.5848C79.6242 26.2148 80.8769 25.2389 82.3803 25.2389C83.3825 25.2389 84.7745 25.7294 85.2478 26.3428V21.9209C84.5796 21.5026 83.995 21.2796 82.9927 21.2796C81.8235 21.2796 80.515 21.7815 79.6242 22.7574V21.6699H75.2812V35.4439Z" fill="white"/>
<path d="M87.5426 35.4439H91.8856V21.6699H87.5426V35.4439Z" fill="white"/>
<path d="M94.8831 41.7453H99.2261V34.6632C100.117 35.4439 101.537 35.8342 103.068 35.8342C106.659 35.8342 110 33.0739 110 28.5569C110 24.0399 106.798 21.2796 103.346 21.2796C101.592 21.2796 100.228 21.8372 99.2261 22.6458V21.6699H94.8831V41.7453ZM102.288 31.7076C100.395 31.7076 99.0869 30.2856 99.0869 28.5569C99.0869 26.8282 100.395 25.4062 102.288 25.4062C104.182 25.4062 105.49 26.8282 105.49 28.5569C105.49 30.2856 104.182 31.7076 102.288 31.7076Z" fill="white"/>
<path d="M48.6549 16.7346C48.6549 17.938 47.6845 18.9099 46.483 18.9099C45.2815 18.9099 44.311 17.938 44.311 16.7346C44.311 15.5313 45.2815 14.5593 46.483 14.5593C47.6845 14.5593 48.6549 15.5313 48.6549 16.7346Z" fill="white"/>
<path d="M11.68 16.7313C11.68 17.9327 10.711 18.9032 9.51137 18.9032C8.31172 18.9032 7.34277 17.9327 7.34277 16.7313C7.34277 15.5298 8.31172 14.5593 9.51137 14.5593C10.711 14.5593 11.68 15.5298 11.68 16.7313Z" fill="white"/>
<defs>
<linearGradient id="paint0_linear_301_7880" x1="103.449" y1="0.153692" x2="97.6778" y2="4.56769" gradientUnits="userSpaceOnUse">
<stop stop-color="#B902D7"/>
<stop offset="0.740699" stop-color="#18AEFF"/>
<stop offset="0.740799" stop-color="#17AEFF"/>
<stop offset="1" stop-color="#0EFFFF"/>
</linearGradient>
<linearGradient id="paint1_linear_301_7880" x1="79.3633" y1="11.7104" x2="96.1518" y2="11.3762" gradientUnits="userSpaceOnUse">
<stop stop-color="#B902D7"/>
<stop offset="0.740699" stop-color="#18AEFF"/>
<stop offset="0.740799" stop-color="#17AEFF"/>
<stop offset="1" stop-color="#0EFFFF"/>
</linearGradient>
</defs>
</svg>
